<?xml version="1.0" encoding="UTF-8"?>
<svg version="1.1" xmlns="http://www.w3.org/2000/svg" width="119" height="108">
<path d="M0 0 C12.64904417 10.08452759 20.03572426 20.80078769 22 37 C23.07668668 50.13557749 18.91659445 62.73244981 10.65625 72.87890625 C0.28348724 84.09064247 -11.64091155 89.06892718 -26.8125 90.3125 C-38.21260124 89.89286437 -47.65658807 86.3958731 -57 80 C-57.60457031 79.59910156 -58.20914063 79.19820313 -58.83203125 78.78515625 C-68.46391578 71.64383817 -74.20358704 58.56669977 -76 47 C-76.96509809 34.04541411 -73.99175356 21.73314274 -65.95703125 11.36328125 C-49.47523179 -7.61490092 -22.03361321 -15.85633236 0 0 Z M-34 -3 C-34 -2.67 -34 -2.34 -34 -2 C-29.38 -2 -24.76 -2 -20 -2 C-20 -2.33 -20 -2.66 -20 -3 C-24.62 -3 -29.24 -3 -34 -3 Z M-19 -2 C-15 -1 -15 -1 -15 -1 Z M-4 4 C-3.67 4.66 -3.34 5.32 -3 6 C-2.34 5.67 -1.68 5.34 -1 5 C-1.99 4.67 -2.98 4.34 -4 4 Z M-47 16 C-51.59422206 22.14046145 -52.81106475 28.23056841 -52.48046875 35.81640625 C-51.2677137 43.85214093 -47.72322411 48.76116296 -41.3828125 53.55078125 C-40 55 -40 55 -39.5625 58.875 C-39.7790625 60.421875 -39.7790625 60.421875 -40 62 C-46.435 62.495 -46.435 62.495 -53 63 C-53 65.64 -53 68.28 -53 71 C-45.74 71 -38.48 71 -31 71 C-30.835 67.473125 -30.67 63.94625 -30.5 60.3125 C-30.42716797 59.20946533 -30.35433594 58.10643066 -30.27929688 56.9699707 C-30.21492098 54.13197998 -30.27203487 51.75090751 -31 49 C-32.90639022 47.1010639 -34.64907433 46.05979487 -37.07836914 44.921875 C-39.96261966 43.53819695 -40.84085509 41.93195478 -42 39 C-43.38461327 32.96704219 -43.23239246 28.40271311 -40 23 C-37.19069256 19.98148881 -34.06578333 17.23037072 -29.86328125 16.76171875 C-24.81181027 16.61473874 -20.75509997 16.74038229 -16.47265625 19.60546875 C-12.68521947 23.19198051 -11.22361585 27.43468908 -10.5 32.5 C-11.14013388 36.98093718 -12.2703694 40.36645443 -15 44 C-16.9765625 45.07446289 -16.9765625 45.07446289 -19.125 46.03515625 C-21.85045419 47.65827706 -22.82886918 48.35273492 -23.65039062 51.45996094 C-23.78842063 54.45644803 -23.69775019 57.31759081 -23.5 60.3125 C-23.2525 65.6028125 -23.2525 65.6028125 -23 71 C-15.74 71 -8.48 71 -1 71 C-1 68.36 -1 65.72 -1 63 C-5.62 63 -10.24 63 -15 63 C-15 56.05949657 -15 56.05949657 -12.29296875 53.19140625 C-10.86855663 52.0471197 -9.44004042 50.90792628 -8.0078125 49.7734375 C-3.19612624 45.52342668 -1.35381127 39.64093391 -0.8984375 33.36328125 C-1.18926611 26.59592323 -3.65386206 20.16838025 -8 15 C-14.23046372 9.34088884 -20.34229686 6.47147215 -28.96484375 6.75390625 C-35.91523802 7.594357 -42.10140614 11.07007185 -47 16 Z M0 7 C0.99 8.485 0.99 8.485 2 10 C2.66 9.67 3.32 9.34 4 9 C2.68 8.34 1.36 7.68 0 7 Z M-60 11 C-60 14 -60 14 -60 14 Z M5 11 C5.33 11.99 5.66 12.98 6 14 C6 13.01 6 12.02 6 11 C5.67 11 5.34 11 5 11 Z M8 15 C8.33 15.99 8.66 16.98 9 18 C9 17.01 9 16.02 9 15 C8.67 15 8.34 15 8 15 Z M-64 16 C-63 18 -63 18 -63 18 Z M-65 18 C-65.33 19.32 -65.66 20.64 -66 22 C-65.34 20.68 -64.68 19.36 -64 18 C-64.33 18 -64.66 18 -65 18 Z M10 18 C11 20 11 20 11 20 Z M11 20 C11.66 21.98 12.32 23.96 13 26 C13.33 25.01 13.66 24.02 14 23 C13.01 22.01 12.02 21.02 11 20 Z M-67 22 C-66 24 -66 24 -66 24 Z M-68 24 C-68.33 25.65 -68.66 27.3 -69 29 C-68.34 28.34 -67.68 27.68 -67 27 C-67.33 26.01 -67.66 25.02 -68 24 Z M14 26 C15 30 15 30 15 30 Z M-70 29 C-73.20279251 39.34344468 -71.22748349 50.16321128 -67.58203125 60.01171875 C-65.82671725 63.32731186 -63.76804893 65.49247332 -61 68 C-62.12451727 65.0280615 -63.22293791 62.66559313 -65 60 C-58.73 60 -52.46 60 -46 60 C-46.33 58.68 -46.66 57.36 -47 56 C-53.6 55.67 -60.2 55.34 -67 55 C-69.25 47.125 -69.25 47.125 -69.1953125 43.16015625 C-69.18886719 42.32548828 -69.18242188 41.49082031 -69.17578125 40.63085938 C-69.15902344 39.78330078 -69.14226562 38.93574219 -69.125 38.0625 C-69.11597656 37.18787109 -69.10695313 36.31324219 -69.09765625 35.41210938 C-69.0742957 33.27461936 -69.03843247 31.13727214 -69 29 C-69.33 29 -69.66 29 -70 29 Z M15 30 C15 37.26 15 44.52 15 52 C17.12426804 47.75146392 17.26975353 45.66183212 17.25 41 C17.25515625 39.783125 17.2603125 38.56625 17.265625 37.3125 C17.18811384 33.75241233 17.18811384 33.75241233 15 30 Z M14 52 C13.67 52.99 13.34 53.98 13 55 C2.605 55.495 2.605 55.495 -8 56 C-8.33 57.32 -8.66 58.64 -9 60 C-2.73 60 3.54 60 10 60 C9.01 61.98 8.02 63.96 7 66 C7.33 66.66 7.66 67.32 8 68 C11.92194468 62.71077185 14.71601983 58.67353409 15 52 C14.67 52 14.34 52 14 52 Z M-61 68 C-57.45718669 75.92023169 -49.68281588 79.76320158 -42 83 C-30.51440731 87.01995744 -18.04877505 85.85240697 -7 81 C-1.71164333 77.92404625 2.7516516 74.39285004 7 70 C6.505 69.01 6.505 69.01 6 68 C5.46632813 68.51949219 4.93265625 69.03898437 4.3828125 69.57421875 C-6.84146636 80.07998841 -16.70951785 82.43093944 -31.609375 82.2109375 C-43.0832621 81.82011124 -52.62250405 75.49565427 -61 68 Z " fill="#E61921" transform="translate(85,12)"/>
<path d="M0 0 C0.66 0 1.32 0 2 0 C2.495 11.88 2.495 11.88 3 24 C-4.92 24 -12.84 24 -21 24 C-21 24.66 -21 25.32 -21 26 C-19.68 26.33 -18.36 26.66 -17 27 C-17 27.99 -17 28.98 -17 30 C-24.09968444 25.0806755 -29.97203874 20.27737072 -33 12 C-29.77085248 11.97082772 -26.54173917 11.95314337 -23.3125 11.9375 C-22.40048828 11.92912109 -21.48847656 11.92074219 -20.54882812 11.91210938 C-19.66259766 11.90888672 -18.77636719 11.90566406 -17.86328125 11.90234375 C-17.05157471 11.89710693 -16.23986816 11.89187012 -15.40356445 11.88647461 C-12.85135327 12.0070209 -10.48973863 12.440051 -8 13 C-8 11.35 -8 9.7 -8 8 C-7.67 8 -7.34 8 -7 8 C-6.95745644 9.99954746 -6.95919217 12.00041636 -7 14 C-8 15 -8 15 -10.94140625 15.09765625 C-12.73384766 15.08025391 -12.73384766 15.08025391 -14.5625 15.0625 C-16.35880859 15.04896484 -16.35880859 15.04896484 -18.19140625 15.03515625 C-19.11824219 15.02355469 -20.04507813 15.01195313 -21 15 C-21 17.64 -21 20.28 -21 23 C-13.74 23 -6.48 23 1 23 C0.67 15.41 0.34 7.82 0 0 Z " fill="#C51C23" transform="translate(53,60)"/>
<path d="M0 0 C0 0.99 0 1.98 0 3 C-0.66 3 -1.32 3 -2 3 C-2 4.98 -2 6.96 -2 9 C-1.01 9 -0.02 9 1 9 C1 7.35 1 5.7 1 4 C1.66 4 2.32 4 3 4 C2.67 5.32 2.34 6.64 2 8 C8.27 8 14.54 8 21 8 C19.80211038 13.98944808 18.11189835 17.52386694 13 21 C8.44433149 21.82736318 4.1504874 21.44553287 -0.4375 21 C-1.64599609 20.91621094 -2.85449219 20.83242187 -4.09960938 20.74609375 C-7.07133684 20.5346665 -10.03458169 20.28505684 -13 20 C-13 19.67 -13 19.34 -13 19 C-5.41 19 2.18 19 10 19 C10 16.36 10 13.72 10 11 C5.38 11 0.76 11 -4 11 C-4.35233161 5.62694301 -4.35233161 5.62694301 -4 3 C-2 1 -2 1 0 0 Z " fill="#DC1820" transform="translate(74,64)"/>
<path d="M0 0 C0.99 0 1.98 0 3 0 C4.60614551 8.08808989 5.26305952 15.7574683 5 24 C4.01 24 3.02 24 2 24 C1.93941406 23.10539062 1.87882812 22.21078125 1.81640625 21.2890625 C1.32367008 14.17850052 0.76742182 7.08640578 0 0 Z " fill="#E61820" transform="translate(100,36)"/>
<path d="M0 0 C5.14283912 5.81990757 6.11519715 15.11952625 6.3125 22.6875 C6 26 6 26 4 29 C3.11858408 25.69469031 2.95769434 22.64502915 3 19.25 C3.05807328 14.4153997 2.61847024 9.79314437 2 5 C1.01 5 0.02 5 -1 5 C-1.33 5.66 -1.66 6.32 -2 7 C-2.66 5.02 -3.32 3.04 -4 1 C-2.68 0.67 -1.36 0.34 0 0 Z " fill="#D11921" transform="translate(101,31)"/>
<path d="M0 0 C0.33 0 0.66 0 1 0 C1 2.31 1 4.62 1 7 C5.62 7 10.24 7 15 7 C15 9.64 15 12.28 15 15 C16.32 15.33 17.64 15.66 19 16 C15.64085326 18.04197094 13.25085463 18.1835561 9.359375 17.9765625 C8.28945312 17.925 7.21953125 17.8734375 6.1171875 17.8203125 C5.00601563 17.75585938 3.89484375 17.69140625 2.75 17.625 C1.62335938 17.56828125 0.49671875 17.5115625 -0.6640625 17.453125 C-3.44336528 17.31180452 -6.2217441 17.16040592 -9 17 C-9 16.67 -9 16.34 -9 16 C-1.41 16 6.18 16 14 16 C14 13.36 14 10.72 14 8 C9.38 8 4.76 8 0 8 C0 5.36 0 2.72 0 0 Z " fill="#B81825" transform="translate(70,67)"/>
<path d="M0 0 C2.97 0 5.94 0 9 0 C9 3.63 9 7.26 9 11 C8.34 10.67 7.68 10.34 7 10 C7 9.34 7 8.68 7 8 C6.21625 7.79375 5.4325 7.5875 4.625 7.375 C2 6 2 6 0.6875 2.875 C0.460625 1.92625 0.23375 0.9775 0 0 Z " fill="#EB1921" transform="translate(22,73)"/>
<path d="M0 0 C-2.61600151 2.61600151 -4.36831541 2.45182119 -8 3 C-9.216875 3.37125 -10.43375 3.7425 -11.6875 4.125 C-15 5 -15 5 -18 4 C-20.14255793 4.38932856 -20.14255793 4.38932856 -22 5 C-14.17239256 -1.6764887 -9.8334672 -2.43212089 0 0 Z " fill="#CE141C" transform="translate(51,9)"/>
<path d="M0 0 C2.64752004 2.57784846 4.94432065 4.91648098 7 8 C7 8.99 7 9.98 7 11 C4.75 11.375 4.75 11.375 2 11 C-2 6.02702703 -2 6.02702703 -2 3 C-1.34 2.67 -0.68 2.34 0 2 C0 1.34 0 0.68 0 0 Z " fill="#D8161E" transform="translate(94,21)"/>
<path d="M0 0 C-2 2 -2 2 -5.4375 2.0625 C-6.613125 2.041875 -7.78875 2.02125 -9 2 C-9.99 2.33 -10.98 2.66 -12 3 C-10.68 3.66 -9.36 4.32 -8 5 C-11.63 5 -15.26 5 -19 5 C-19.33 4.01 -19.66 3.02 -20 2 C-13.23514355 0.3879491 -6.95041086 -0.26618595 0 0 Z " fill="#E01219" transform="translate(63,4)"/>
<path d="M0 0 C2.31 0.33 4.62 0.66 7 1 C7 1.99 7 2.98 7 4 C1.92327799 4.84612033 -2.84869218 5.26193091 -8 5 C-8.66 4.34 -9.32 3.68 -10 3 C-6.7 2.67 -3.4 2.34 0 2 C0 1.34 0 0.68 0 0 Z " fill="#E61319" transform="translate(62,97)"/>
<path d="M0 0 C1.32 0.66 2.64 1.32 4 2 C2.84414715 5.91211733 1.64465038 8.8745041 -1 12 C-1.33 10.68 -1.66 9.36 -2 8 C-2.66 9.32 -3.32 10.64 -4 12 C-4.33 11.34 -4.66 10.68 -5 10 C-4.00390625 7.6171875 -4.00390625 7.6171875 -2.5625 4.875 C-1.85287109 3.50988281 -1.85287109 3.50988281 -1.12890625 2.1171875 C-0.75636719 1.41851563 -0.38382813 0.71984375 0 0 Z " fill="#D2151C" transform="translate(17,26)"/>
<path d="M0 0 C0.66 0.33 1.32 0.66 2 1 C0.8125 2.9375 0.8125 2.9375 -1 5 C-1.845625 5.165 -2.69125 5.33 -3.5625 5.5 C-4.366875 5.665 -5.17125 5.83 -6 6 C-7.15922128 7.73142854 -7.15922128 7.73142854 -8 10 C-11.55737705 15.85245902 -11.55737705 15.85245902 -15 17 C-12.62079389 9.14861983 -6.60192052 4.35726754 0 0 Z " fill="#CC1219" transform="translate(36,15)"/>
<path d="M0 0 C0.33 0 0.66 0 1 0 C1 4.29 1 8.58 1 13 C2.32 13.33 3.64 13.66 5 14 C5 14.99 5 15.98 5 17 C0.36279281 13.72469104 -3.68542782 10.69564393 -7 6 C-2.125 7.75 -2.125 7.75 -1 10 C-0.67 6.7 -0.34 3.4 0 0 Z " fill="#CF171C" transform="translate(31,73)"/>
<path d="M0 0 C0.99 1.32 1.98 2.64 3 4 C3.66 4 4.32 4 5 4 C5.25 9.625 5.25 9.625 3 13 C2.01 12.67 1.02 12.34 0 12 C0 8.04 0 4.08 0 0 Z " fill="#C80E14" transform="translate(9,47)"/>
<path d="M0 0 C1.23072344 3.69217033 0.60450995 5.39567314 -0.375 9.125 C-0.65085937 10.20007813 -0.92671875 11.27515625 -1.2109375 12.3828125 C-2 15 -2 15 -3 16 C-3.23075082 17.34747084 -3.41153063 18.70377565 -3.5625 20.0625 C-3.706875 21.361875 -3.85125 22.66125 -4 24 C-4.33 24 -4.66 24 -5 24 C-5.50313121 15.24179002 -4.09338635 7.79523139 0 0 Z " fill="#CD1A20" transform="translate(20,32)"/>
<path d="M0 0 C5.94 0.99 5.94 0.99 12 2 C12 2.66 12 3.32 12 4 C12.66 4.33 13.32 4.66 14 5 C8.34605369 5.34615998 4.96993194 4.43425238 0 2 C0 1.34 0 0.68 0 0 Z " fill="#E91821" transform="translate(37,94)"/>
<path d="M0 0 C0.33 0.66 0.66 1.32 1 2 C2.32 1.67 3.64 1.34 5 1 C4.01 2.98 3.02 4.96 2 7 C1.67 6.34 1.34 5.68 1 5 C0.34 5 -0.32 5 -1 5 C-1.66 6.32 -2.32 7.64 -3 9 C-3.33 8.34 -3.66 7.68 -4 7 C-3.22265625 5.2734375 -3.22265625 5.2734375 -2.0625 3.375 C-1.381875 2.26125 -0.70125 1.1475 0 0 Z " fill="#CD151C" transform="translate(99,69)"/>
<path d="M0 0 C2.60704898 2.60704898 2.23905333 4.47338241 2.265625 8.02734375 C2 10 2 10 0 13 C-0.98248196 8.94726192 -1.16017882 5.16464926 -1 1 C-0.67 0.67 -0.34 0.34 0 0 Z " fill="#D6242C" transform="translate(105,47)"/>
</svg>
